<svg width="200" height="294" fill="none" xmlns="http://www.w3.org/2000/svg"><rect width="200" height="294" rx="35" fill="#EDF3F6"/><rect width="200" height="294" rx="15" fill="#fff"/><mask id="mask0_1_33" style="mask-type:alpha" maskUnits="userSpaceOnUse" x="11" y="5" width="181" height="285"><path fill-rule="evenodd" clip-rule="evenodd" d="M20 5a7 7 0 0 0-7 7v1.774a7 7 0 0 0 7 7h162a7 7 0 0 0 7-7V12a7 7 0 0 0-7-7H20Zm20 27.604c0 4.667-3.358 8.45-7.5 8.45-4.142 0-7.5-3.783-7.5-8.45s3.358-8.45 7.5-8.45c4.142 0 7.5 3.783 7.5 8.45ZM11 64c0-11.046 8.954-20 20-20h141c11.046 0 20 8.954 20 20v28c0 11.046-8.954 20-20 20H31c-11.046 0-20-8.954-20-20V64Zm18 79a7 7 0 0 0-7 7v10a7 7 0 0 0 7 7h25a7 7 0 0 0 7-7v-10a7 7 0 0 0-7-7H29Zm-18 41c0-8.284 6.716-15 15-15h151c8.284 0 15 6.716 15 15v23c0 8.284-6.716 15-15 15H26c-8.284 0-15-6.716-15-15v-23Zm22 45a5 5 0 1 1-10 0 5 5 0 0 1 10 0Zm-18 14a3 3 0 0 1 3-3h26.848a3 3 0 0 1 3 3v8a3 3 0 0 1-3 3H18a3 3 0 0 1-3-3v-8Zm0 38a7 7 0 0 1 7-7h160a7 7 0 0 1 7 7v2a7 7 0 0 1-7 7H22a7 7 0 0 1-7-7v-2Zm73.076-41a3 3 0 0 0-3 3v8a3 3 0 0 0 3 3h26.848a3 3 0 0 0 3-3v-8a3 3 0 0 0-3-3H88.076Zm-38.038 3a3 3 0 0 1 3-3h26.848a3 3 0 0 1 3 3v8a3 3 0 0 1-3 3H53.038a3 3 0 0 1-3-3v-8Zm73.076-3a3 3 0 0 0-3 3v8a3 3 0 0 0 3 3h26.848a3 3 0 0 0 3-3v-8a3 3 0 0 0-3-3h-26.848Zm32.038 3a3 3 0 0 1 3-3H185a3 3 0 0 1 3 3v8a3 3 0 0 1-3 3h-26.848a3 3 0 0 1-3-3v-8ZM18 256a3 3 0 0 0-3 3v8a3 3 0 0 0 3 3h26.848a3 3 0 0 0 3-3v-8a3 3 0 0 0-3-3H18Zm67.076 3a3 3 0 0 1 3-3h26.848a3 3 0 0 1 3 3v8a3 3 0 0 1-3 3H88.076a3 3 0 0 1-3-3v-8Zm-32.038-3a3 3 0 0 0-3 3v8a3 3 0 0 0 3 3h26.848a3 3 0 0 0 3-3v-8a3 3 0 0 0-3-3H53.038Zm67.076 3a3 3 0 0 1 3-3h26.848a3 3 0 0 1 3 3v8a3 3 0 0 1-3 3h-26.848a3 3 0 0 1-3-3v-8Zm38.038-3a3 3 0 0 0-3 3v8a3 3 0 0 0 3 3H185a3 3 0 0 0 3-3v-8a3 3 0 0 0-3-3h-26.848ZM51 234a5 5 0 1 0 0-10 5 5 0 0 0 0 10Zm28-5a5 5 0 1 1-10 0 5 5 0 0 1 10 0Zm18 5a5 5 0 1 0 0-10 5 5 0 0 0 0 10Zm28-5a5 5 0 1 1-10.001-.001A5 5 0 0 1 125 229Zm-85 5a5 5 0 1 0 0-10 5 5 0 0 0 0 10Zm27-5a5 5 0 1 1-10 0 5 5 0 0 1 10 0Zm19 5a5 5 0 1 0 0-10 5 5 0 0 0 0 10Zm27-5a5 5 0 1 1-10.001-.001A5 5 0 0 1 113 229Zm19 5a5 5 0 1 0-.001-10.001A5 5 0 0 0 132 234Zm28-5a5 5 0 1 1-10.001-.001A5 5 0 0 1 160 229Zm-17 5a5 5 0 1 0-.001-10.001A5 5 0 0 0 143 234Zm28-5a5 5 0 1 1-10.001-.001A5 5 0 0 1 171 229Zm7 5a5 5 0 1 0-.001-10.001A5 5 0 0 0 178 234Zm-97-84a7 7 0 0 1 7-7h25a7 7 0 0 1 7 7v10a7 7 0 0 1-7 7H88a7 7 0 0 1-7-7v-10Zm66-7a7 7 0 0 0-7 7v10a7 7 0 0 0 7 7h25a7 7 0 0 0 7-7v-10a7 7 0 0 0-7-7h-25ZM26 117a7 7 0 0 0-7 7v5.218a7 7 0 0 0 7 7h87.333a7 7 0 0 0 7-7V124a7 7 0 0 0-7-7H26Zm100 7.226a7 7 0 0 1 7-7h10.533a7 7 0 0 1 7 7v5.218a7 7 0 0 1-7 7H133a7 7 0 0 1-7-7v-5.218Zm37-7a7 7 0 0 0-7 7v5.218a7 7 0 0 0 7 7h10.533a7 7 0 0 0 7-7v-5.218a7 7 0 0 0-7-7H163ZM55.5 41.054c4.142 0 7.5-3.783 7.5-8.45s-3.358-8.45-7.5-8.45c-4.142 0-7.5 3.783-7.5 8.45s3.358 8.45 7.5 8.45Zm30.5-8.45c0 4.667-3.358 8.45-7.5 8.45-4.142 0-7.5-3.783-7.5-8.45s3.358-8.45 7.5-8.45c4.142 0 7.5 3.783 7.5 8.45Zm15.5 8.45c4.142 0 7.5-3.783 7.5-8.45s-3.358-8.45-7.5-8.45c-4.142 0-7.5 3.783-7.5 8.45s3.358 8.45 7.5 8.45Zm30.5-8.45c0 4.667-3.358 8.45-7.5 8.45-4.142 0-7.5-3.783-7.5-8.45s3.358-8.45 7.5-8.45c4.142 0 7.5 3.783 7.5 8.45Zm15.5 8.45c4.142 0 7.5-3.783 7.5-8.45s-3.358-8.45-7.5-8.45c-4.142 0-7.5 3.783-7.5 8.45s3.358 8.45 7.5 8.45Zm30.5-8.45c0 4.667-3.358 8.45-7.5 8.45-4.142 0-7.5-3.783-7.5-8.45s3.358-8.45 7.5-8.45c4.142 0 7.5 3.783 7.5 8.45Z" fill="#EDF3F6"/></mask><g mask="url('#mask0_1_33')"><rect width="200" height="294" rx="15" fill="#EDF3F6"/></g></svg>