<svg xmlns="http://www.w3.org/2000/svg" viewBox="0 0 20.28 22.21"><g id="Layer_2" data-name="Layer 2"><g id="Layer_1-2" data-name="Layer 1"><path id="Celcius" d="M18.85 16.05a1.41 1.41 0 0 0-1.4 1.35 4.21 4.21 0 0 1-.1.62 2 2 0 0 1-.19.48 1 1 0 0 1-.21.32 1.88 1.88 0 0 1-.55.27 2.94 2.94 0 0 1-1 .14c-1.65 0-2.29-.7-2.29-2.51V9.79c0-1.81.62-2.51 2.21-2.51a3 3 0 0 1 1.18.2 1.11 1.11 0 0 1 .5.35 2.67 2.67 0 0 1 .32.63 1.71 1.71 0 0 1 .1.51 1.41 1.41 0 0 0 1.31 1.49h.1a1.51 1.51 0 0 0 1.42-1.58s0-.09 0-.13a4.32 4.32 0 0 0-1.35-3.18 4.84 4.84 0 0 0-3.55-1.28 4.94 4.94 0 0 0-3.57 1.35 5.51 5.51 0 0 0-1.46 4.15v6.92a5.56 5.56 0 0 0 1.43 4.14 4.93 4.93 0 0 0 3.55 1.36 5 5 0 0 0 3.58-1.29 4.27 4.27 0 0 0 1.38-3.14A1.49 1.49 0 0 0 19 16.07ZM4.28 0a4 4 0 1 0 3.79 4.28 1.93 1.93 0 0 0 0-.24A3.93 3.93 0 0 0 4.28 0Zm0 6a1.92 1.92 0 1 1 1.8-2 .37.37 0 0 1 0 .11A1.86 1.86 0 0 1 4.29 6Z" style="fill:#5a1c3b;fill-rule:evenodd"/></g></g></svg>