<svg id="Layer_2" data-name="Layer 2" xmlns="http://www.w3.org/2000/svg" viewBox="0 0 20.28 22.21"><g id="Layer_1-2" data-name="Layer 1"><path id="Celcius" d="M18.85 16.05c-.75 0-1.37.6-1.4 1.35-.03.27-.07.47-.1.62-.05.17-.11.33-.19.48-.05.12-.13.23-.22.32-.16.12-.35.21-.54.26-.32.1-.65.15-.99.14-1.64 0-2.29-.7-2.29-2.51V9.79c0-1.81.62-2.51 2.21-2.51.4-.01.81.05 1.19.2.2.07.37.19.5.35.13.19.24.4.32.62.06.16.09.34.1.51-.05.77.53 1.45 1.31 1.5h.1a1.5 1.5 0 0 0 1.42-1.58c0-.04 0-.09-.01-.13 0-1.2-.48-2.36-1.35-3.19a4.837 4.837 0 0 0-3.55-1.28 4.97 4.97 0 0 0-3.57 1.35 5.513 5.513 0 0 0-1.46 4.15v6.92a5.56 5.56 0 0 0 1.43 4.14c.95.91 2.23 1.4 3.55 1.36 1.31.06 2.6-.4 3.57-1.29.88-.81 1.38-1.95 1.39-3.15.13-.82-.43-1.58-1.25-1.71-.05 0-.11-.01-.16-.02ZM4.28 0A4.055 4.055 0 0 0 0 3.8a4.032 4.032 0 0 0 3.79 4.27c2.23.13 4.14-1.56 4.27-3.79v-.24A3.918 3.918 0 0 0 4.28 0Zm0 5.95c-1.06.06-1.97-.74-2.03-1.8-.06-1.06.74-1.97 1.8-2.03 1.06-.06 1.97.74 2.03 1.8v.11c.03 1.03-.77 1.88-1.8 1.92h-.01Z" style="fill:#fff;fill-rule:evenodd"/></g></svg>