<svg xmlns="http://www.w3.org/2000/svg" xmlns:xlink="http://www.w3.org/1999/xlink" viewBox="0 0 84.92 73.86"><defs><linearGradient id="linear-gradient" x1="61.18" y1="21.88" x2="61.18" y2="33.62" gradientUnits="userSpaceOnUse"><stop offset="0" stop-color="#ff8d00"/><stop offset=".35" stop-color="#ffbc00" stop-opacity=".67"/><stop offset=".52" stop-color="#ffcf00" stop-opacity=".54"/><stop offset=".67" stop-color="#ffd100" stop-opacity=".35"/><stop offset=".89" stop-color="#ffd400" stop-opacity=".1"/><stop offset="1" stop-color="#ffd500" stop-opacity="0"/></linearGradient><linearGradient id="linear-gradient-2" x1="59.49" y1="58.22" x2="59.49" y2="67.07" gradientUnits="userSpaceOnUse"><stop offset="0" stop-color="#ff8d00"/><stop offset=".41" stop-color="#ffbc00" stop-opacity=".67"/><stop offset=".61" stop-color="#ffcf00" stop-opacity=".54"/><stop offset=".73" stop-color="#ffd100" stop-opacity=".35"/><stop offset=".91" stop-color="#ffd400" stop-opacity=".1"/><stop offset="1" stop-color="#ffd500" stop-opacity="0"/></linearGradient><linearGradient id="linear-gradient-3" x1="6007.2" y1="-1867.65" x2="6027.02" y2="-1867.65" gradientTransform="rotate(90 2078.29 -3875.74)" gradientUnits="userSpaceOnUse"><stop offset="0" stop-color="#fff" stop-opacity="0"/><stop offset="0" stop-color="#fff" stop-opacity=".04"/><stop offset=".02" stop-color="#fff" stop-opacity=".22"/><stop offset=".05" stop-color="#fff" stop-opacity=".39"/><stop offset=".07" stop-color="#fff" stop-opacity=".53"/><stop offset=".1" stop-color="#fff" stop-opacity=".66"/><stop offset=".13" stop-color="#fff" stop-opacity=".77"/><stop offset=".16" stop-color="#fff" stop-opacity=".85"/><stop offset=".2" stop-color="#fff" stop-opacity=".92"/><stop offset=".25" stop-color="#fff" stop-opacity=".97"/><stop offset=".31" stop-color="#fff" stop-opacity=".99"/><stop offset=".5" stop-color="#fff"/></linearGradient><linearGradient id="linear-gradient-4" x1="6007.2" y1="-1842.6" x2="6027.02" y2="-1842.6" xlink:href="#linear-gradient-3"/><linearGradient id="linear-gradient-5" x1="6007.2" y1="-1850.96" x2="6027.02" y2="-1850.96" xlink:href="#linear-gradient-3"/><linearGradient id="linear-gradient-6" x1="6007.2" y1="-1859.32" x2="6027.02" y2="-1859.32" xlink:href="#linear-gradient-3"/><linearGradient id="linear-gradient-7" x1="6003.8" y1="-1871.81" x2="6027.02" y2="-1871.81" xlink:href="#linear-gradient-3"/><linearGradient id="linear-gradient-8" x1="6003.8" y1="-1846.77" x2="6027.02" y2="-1846.77" xlink:href="#linear-gradient-3"/><linearGradient id="linear-gradient-9" x1="6003.8" y1="-1855.13" x2="6027.02" y2="-1855.13" xlink:href="#linear-gradient-3"/><linearGradient id="linear-gradient-10" x1="6003.8" y1="-1863.49" x2="6027.02" y2="-1863.49" xlink:href="#linear-gradient-3"/><linearGradient id="linear-gradient-11" x1="5122.11" y1="-7726.05" x2="5169.29" y2="-7726.05" gradientTransform="rotate(180 2602.415 -3832.775)" gradientUnits="userSpaceOnUse"><stop offset="0" stop-color="#fff" stop-opacity="0"/><stop offset="0" stop-color="#fff" stop-opacity=".04"/><stop offset=".02" stop-color="#fff" stop-opacity=".22"/><stop offset=".05" stop-color="#fff" stop-opacity=".39"/><stop offset=".07" stop-color="#fff" stop-opacity=".53"/><stop offset=".1" stop-color="#fff" stop-opacity=".66"/><stop offset=".13" stop-color="#fff" stop-opacity=".77"/><stop offset=".16" stop-color="#fff" stop-opacity=".85"/><stop offset=".2" stop-color="#fff" stop-opacity=".92"/><stop offset=".25" stop-color="#fff" stop-opacity=".97"/><stop offset=".31" stop-color="#fff" stop-opacity=".99"/><stop offset=".5" stop-color="#fff"/><stop offset=".69" stop-color="#fff" stop-opacity=".99"/><stop offset=".75" stop-color="#fff" stop-opacity=".97"/><stop offset=".8" stop-color="#fff" stop-opacity=".92"/><stop offset=".84" stop-color="#fff" stop-opacity=".85"/><stop offset=".87" stop-color="#fff" stop-opacity=".77"/><stop offset=".9" stop-color="#fff" stop-opacity=".66"/><stop offset=".93" stop-color="#fff" stop-opacity=".53"/><stop offset=".95" stop-color="#fff" stop-opacity=".39"/><stop offset=".98" stop-color="#fff" stop-opacity=".22"/><stop offset="1" stop-color="#fff" stop-opacity=".04"/><stop offset="1" stop-color="#fff" stop-opacity="0"/></linearGradient><linearGradient id="linear-gradient-12" x1="5122.11" y1="-7734.38" x2="5169.29" y2="-7734.38" xlink:href="#linear-gradient-11"/><linearGradient id="linear-gradient-13" x1="5122.11" y1="-7721.85" x2="5169.29" y2="-7721.85" xlink:href="#linear-gradient-11"/><linearGradient id="linear-gradient-14" x1="5122.11" y1="-7730.21" x2="5169.29" y2="-7730.21" xlink:href="#linear-gradient-11"/><style>.cls-1{fill:#fff}.cls-11,.cls-17{fill:none;stroke-miterlimit:10}.cls-11,.cls-17{stroke:#fff}.cls-11,.cls-17{stroke-linecap:round}.cls-11{stroke-width:.35px}.cls-13{fill:#ffd53a}.cls-13{opacity:.35}.cls-17{stroke-width:.75px}</style></defs><g id="Layer_2" data-name="Layer 2"><g id="Layer_1-2" data-name="Layer 1"><path class="cls-1" d="M5 0h74.92a5 5 0 0 1 5 5v11.72H0V5a5 5 0 0 1 5-5Z"/><circle cx="8.78" cy="8.36" r="4.11" style="fill:#2aa7c2"/><rect x="17.09" y="6.04" width="24.59" height="4.63" rx="2.31" ry="2.31" style="fill:#6a6a6a;opacity:.5"/><path d="M10.58 47a3.5 3.5 0 0 1-3.49-3.49A4 4 0 0 1 11 39.59h61.34a4 4 0 0 1 3.94 3.94 3.5 3.5 0 0 1-3.5 3.47Z" style="fill:#231f20;opacity:.06"/><path class="cls-1" d="M72.34 39.59a4 4 0 0 1 3.94 3.94 3.5 3.5 0 0 1-3.5 3.47h-62.2a3.5 3.5 0 0 1-3.49-3.49A3.94 3.94 0 0 1 11 39.59h61.34m0-.26H11a4.2 4.2 0 0 0-4.19 4.2 3.75 3.75 0 0 0 3.75 3.75h62.2a3.75 3.75 0 0 0 3.76-3.75 4.2 4.2 0 0 0-4.2-4.2Z" style="opacity:.49"/><circle class="cls-1" cx="12.32" cy="43.31" r="1.11"/><rect x="15.57" y="42.19" width="14.8" height="2.22" rx="1.11" ry="1.11" style="opacity:.75;fill:#fff"/><text transform="translate(7.43 32.36)" style="font-family:OpenSans-Bold,OpenSans Bold;font-size:13.99px;font-weight:700;fill:#fff">31°</text><g style="opacity:.68"><path d="M71.23 33.62v-9.45a.46.46 0 0 1 .46-.47h2.67a.46.46 0 0 1 .46.47v9.45Zm-11.85 0v-6.8a.46.46 0 0 1 .46-.46h2.67a.46.46 0 0 1 .46.46v6.8Zm-11.85 0V22.34a.46.46 0 0 1 .46-.46h2.67a.46.46 0 0 1 .46.46v11.28Z" style="fill:url(#linear-gradient)"/></g><path class="cls-1" d="M50.66 21.88a.46.46 0 0 1 .46.46v11.28h-3.59V22.34a.47.47 0 0 1 .46-.46h2.67m23.7 1.82a.46.46 0 0 1 .46.47v9.45h-3.59v-9.45a.46.46 0 0 1 .46-.47h2.67m-11.85 2.66a.46.46 0 0 1 .46.46v6.8h-3.59v-6.8a.46.46 0 0 1 .46-.46h2.67m-11.85-4.81H48a.79.79 0 0 0-.79.79V34h28v-9.83a.79.79 0 0 0-.79-.8h-2.73a.79.79 0 0 0-.79.8v9.47h-7.6v-6.82a.79.79 0 0 0-.79-.79h-2.67a.79.79 0 0 0-.79.79v6.82h-7.6v-11.3a.79.79 0 0 0-.79-.79Z"/><path class="cls-1" d="M45.62 25.36h2.67a.79.79 0 0 1 .79.79V34h-4.25v-7.85a.79.79 0 0 1 .79-.79ZM57.47 28.69h2.67a.79.79 0 0 1 .79.79V34h-4.25v-4.52a.79.79 0 0 1 .79-.79ZM69.32 31.32H72a.79.79 0 0 1 .79.79V34h-4.26v-1.89a.79.79 0 0 1 .79-.79Z"/><path class="cls-1" d="M43.38 33.69h33.53v.39H43.38z"/><path style="opacity:.1;fill:#fff" d="M43.38 33.96h33.53v.78H43.38z"/><path class="cls-11" d="M35.88 72.09v-.53"/><path d="M35.61 69.39a13.55 13.55 0 0 0-26.73 1.08" style="stroke-dasharray:1.09 2.18;stroke-width:.35px;stroke-linecap:round;stroke:#fff;fill:none;stroke-miterlimit:10"/><path class="cls-11" d="M8.79 71.56v.53"/><path class="cls-13" d="m16.1 60.06 6.23 12h13.55a13.55 13.55 0 0 0-19.78-12Z"/><path class="cls-13" d="m16.45 59.88-.35.18 6.23 12"/><path d="M22.33 70.32A1.78 1.78 0 0 1 24 72.77a1.74 1.74 0 0 1-1 1 1.79 1.79 0 0 1-.68.13 1.77 1.77 0 0 1-1.64-2.44 1.8 1.8 0 0 1 1.64-1.1" style="fill:#ffda69"/><path d="M44.51 65.21c3.9-1.66 6.12-1.26 7.49-.59s3.62-1.16 5-4.07 3.62-3.13 5-.5 3.63 3.75 5 2.48A6 6 0 0 1 72 61l2.5.75v5.34h-30Z" style="fill-opacity:.29;fill:url(#linear-gradient-2);opacity:.35"/><path d="m44.51 65.21 2.5-.9a7.35 7.35 0 0 1 5 .31c1.38.67 3.62-1.16 5-4.07s3.62-3.13 5-.5 3.63 3.75 5 2.48A6 6 0 0 1 72 61l2.5.75" style="stroke:#ffd53a;stroke-width:.5px;stroke-linecap:round;fill:none;stroke-miterlimit:10"/><path class="cls-17" d="M74.48 67.11h0"/><path d="M72.32 65.72 72 65.5a6.16 6.16 0 0 0-5-.61c-1.37.54-3.62 1.3-5 1.67a15 15 0 0 0-5 3 4 4 0 0 1-5 .29 4.1 4.1 0 0 0-5 .15l-1.53 1.3" style="stroke-dasharray:0 2.56;stroke-width:.75px;stroke-linecap:round;stroke:#fff;fill:none;stroke-miterlimit:10"/><path class="cls-17" d="M44.51 72.09h0"/><path style="stroke:url(#linear-gradient-3);stroke-width:.5px;stroke-opacity:.1;fill:none;stroke-miterlimit:10" d="M70.2 53.16v19.83"/><path style="stroke:url(#linear-gradient-4);stroke-width:.5px;stroke-opacity:.1;fill:none;stroke-miterlimit:10" d="M45.16 53.16v19.83"/><path style="stroke:url(#linear-gradient-5);stroke-width:.5px;stroke-opacity:.1;fill:none;stroke-miterlimit:10" d="M53.52 53.16v19.83"/><path style="stroke:url(#linear-gradient-6);stroke-width:.5px;stroke-opacity:.1;fill:none;stroke-miterlimit:10" d="M61.88 53.16v19.83"/><path style="stroke:url(#linear-gradient-7);stroke-width:.5px;stroke-opacity:.1;fill:none;stroke-miterlimit:10" d="M74.37 49.76v23.23"/><path style="stroke:url(#linear-gradient-8);stroke-width:.5px;stroke-opacity:.1;fill:none;stroke-miterlimit:10" d="M49.32 49.76v23.23"/><path style="stroke:url(#linear-gradient-9);stroke-width:.5px;stroke-opacity:.1;fill:none;stroke-miterlimit:10" d="M57.68 49.76v23.23"/><path style="stroke:url(#linear-gradient-10);stroke-width:.5px;stroke-opacity:.1;fill:none;stroke-miterlimit:10" d="M66.04 49.76v23.23"/><path style="stroke:url(#linear-gradient-11);stroke-width:.33px;stroke-opacity:.1;fill:none;stroke-miterlimit:10" d="M82.72 60.49H35.54"/><path style="stroke:url(#linear-gradient-12);stroke-width:.33px;stroke-opacity:.1;fill:none;stroke-miterlimit:10" d="M82.72 68.82H35.54"/><path style="stroke:url(#linear-gradient-13);stroke-width:.33px;stroke-opacity:.1;fill:none;stroke-miterlimit:10" d="M82.73 56.3H35.55"/><path style="stroke:url(#linear-gradient-14);stroke-width:.33px;stroke-opacity:.1;fill:none;stroke-miterlimit:10" d="M82.73 64.66H35.55"/></g></g></svg>