<svg xmlns="http://www.w3.org/2000/svg" width="15.813" height="17.656"><path id="Fahrenheit" d="M97.969 73.259a4.452 4.452 0 0 0-4.9-.028 1.8 1.8 0 0 0-.468.354 2.768 2.768 0 0 0-.418.5 4.38 4.38 0 0 0-.734 2.233l-.01.118a6.04 6.04 0 0 0-.016.475v5.54c0 .168 0 .32.013.416v2.7a1.126 1.126 0 1 0 2.25 0v-4.76h1.733a1.1 1.1 0 0 0 1.1-1.172 1.125 1.125 0 0 0-1.1-1.215h-1.735v-1.513c0-1.447.493-2.01 1.76-2.01a2.53 2.53 0 0 1 .933.143 1.126 1.126 0 0 1 .405.271 3.54 3.54 0 0 1 .26.486 1.616 1.616 0 0 1 .081.444 1.142 1.142 0 0 0 1.132 1.2 1.193 1.193 0 0 0 1.131-1.371 3.483 3.483 0 0 0-1.065-2.522 1.614 1.614 0 0 0-.352-.289ZM86.6 69.082a3.231 3.231 0 1 0 3.039 3.225 3.143 3.143 0 0 0-3.039-3.225Zm0 4.76a1.537 1.537 0 1 1 1.446-1.534 1.486 1.486 0 0 1-1.446 1.534Z" transform="translate(-83.563 -69.094)" style="fill:#fff;fill-rule:evenodd"/></svg>