<svg id="Layer_2" data-name="Layer 2" xmlns="http://www.w3.org/2000/svg" viewBox="0 0 16.22 17.66"><g class="cls-1" id="Layer_1-2" data-name="Layer 1"><path id="Fahrenheit" d="M14.79 4.18a4.45 4.45 0 0 0-4.9-.03c-.17.09-.33.21-.47.35-.16.15-.3.32-.42.5-.44.66-.7 1.44-.73 2.23v.12c-.02.15-.03.31-.03.47v5.54c0 .17 0 .32.01.42v2.7c-.03.62.46 1.15 1.08 1.17.62.03 1.15-.46 1.17-1.08v-4.85h1.73c.61 0 1.1-.49 1.1-1.1v-.07c.05-.62-.41-1.16-1.03-1.21h-1.81V7.83c0-1.45.49-2.01 1.76-2.01.32-.01.63.04.93.14.15.06.29.15.4.27.1.15.19.32.26.49.05.14.07.29.08.44-.03.63.45 1.17 1.08 1.2h.05c.66-.03 1.17-.58 1.14-1.24 0-.04 0-.09-.01-.13 0-.95-.38-1.86-1.07-2.52-.1-.11-.22-.21-.35-.29ZM3.42 0A3.247 3.247 0 0 0 0 3.04a3.232 3.232 0 0 0 3.03 3.42c1.78.11 3.31-1.25 3.42-3.03v-.19C6.51 1.5 5.15.06 3.42 0Zm0 4.76c-.85.05-1.58-.6-1.63-1.44-.05-.85.6-1.58 1.44-1.63.85-.05 1.58.6 1.63 1.44v.09c.03.82-.62 1.51-1.44 1.53Z" style="fill:#3877bc;fill-rule:evenodd"/></g></svg>