<svg xmlns="http://www.w3.org/2000/svg" viewBox="0 0 16.22 17.66"><g id="Layer_2" data-name="Layer 2"><g id="Layer_1-2" data-name="Layer 1"><path id="Fahrenheit" d="M14.79 4.18a4.45 4.45 0 0 0-4.9 0 2.35 2.35 0 0 0-.47.36A3.31 3.31 0 0 0 9 5a4.33 4.33 0 0 0-.74 2.23v9.25a1.13 1.13 0 0 0 2.25.1v-4.85h1.73a1.1 1.1 0 0 0 1.1-1.1v-.07a1.12 1.12 0 0 0-1-1.21h-1.8V7.83c0-1.45.49-2 1.76-2a2.69 2.69 0 0 1 .9.17 1.39 1.39 0 0 1 .41.27c.09.16.18.32.26.49a2.14 2.14 0 0 1 .08.44A1.13 1.13 0 0 0 15 8.36h.05a1.18 1.18 0 0 0 1.14-1.24.62.62 0 0 0 0-.13 3.48 3.48 0 0 0-1.07-2.52 1.64 1.64 0 0 0-.33-.29ZM3.42 0a3.23 3.23 0 1 0 3 3.41v-.18a3.13 3.13 0 0 0-3-3.23Zm0 4.76a1.54 1.54 0 1 1 1.45-1.62v.09a1.49 1.49 0 0 1-1.44 1.54Z" style="fill:#343333;fill-rule:evenodd"/></g></g></svg>