<svg xmlns="http://www.w3.org/2000/svg" viewBox="0 0 18.59 22"><g id="Layer_2" data-name="Layer 2"><g id="Layer_1-2" data-name="Layer 1"><path id="Fahrenheit" d="M17 5.21a4.77 4.77 0 0 0-5.61 0 2.12 2.12 0 0 0-.54.45 3.3 3.3 0 0 0-.48.62A5.73 5.73 0 0 0 9.48 9v.15a5.62 5.62 0 0 0 0 .59v10.78A1.37 1.37 0 0 0 10.7 22a1.34 1.34 0 0 0 1.3-1.34v-6.05h2a1.32 1.32 0 0 0 1.26-1.37v-.09a1.37 1.37 0 0 0-1.18-1.51H12V9.75c0-1.8.56-2.5 2-2.5a2.83 2.83 0 0 1 1.07.18 1.25 1.25 0 0 1 .46.34 5.59 5.59 0 0 1 .3.6 2.63 2.63 0 0 1 .09.55 1.39 1.39 0 0 0 1.24 1.5h.06a1.45 1.45 0 0 0 1.31-1.55.88.88 0 0 0 0-.16 4.48 4.48 0 0 0-1.22-3.14 1.72 1.72 0 0 0-.31-.36ZM3.92 0A3.82 3.82 0 0 0 0 3.79 3.92 3.92 0 0 0 3.48 8 3.83 3.83 0 0 0 7.4 4.26V4a3.78 3.78 0 0 0-3.48-4Zm0 5.93a1.83 1.83 0 0 1-1.86-1.8 1.87 1.87 0 0 1 1.65-2 1.84 1.84 0 0 1 1.87 1.8V4a1.8 1.8 0 0 1-1.65 1.94Z" style="fill:#fff;fill-rule:evenodd"/></g></g></svg>