<svg xmlns="http://www.w3.org/2000/svg" width="11" height="11"><path id="Icon" d="M41.536 124.875a3.9 3.9 0 0 0-1.33 1.319 12.673 12.673 0 0 1 .747 1.679 9.1 9.1 0 0 1 .583-.873 8.658 8.658 0 0 1 1.874 4.725 1.833 1.833 0 0 1-1.874 1.788 1.95 1.95 0 0 1-1.19-.42 4.08 4.08 0 0 1-1.292.923 3.558 3.558 0 0 0 2.482 1 3.376 3.376 0 0 0 3.457-3.287c0-3.4-2.993-6.854-3.457-6.854Zm-1.76 7.46a2.9 2.9 0 0 0 .709-1.9 6.423 6.423 0 0 0-.165-1.391 10.157 10.157 0 0 0-.709-1.967 7.571 7.571 0 0 0-2.368-3.071c-.443 0-3.255 3.25-3.255 6.429a3.172 3.172 0 0 0 3.255 3.083 3.434 3.434 0 0 0 1.266-.24 3.145 3.145 0 0 0 1.267-.943Zm-1.7-.564a1.7 1.7 0 0 1-.836.252 1.627 1.627 0 0 1-1.672-1.583 8 8 0 0 1 1.672-4.27 9.651 9.651 0 0 1 1.418 2.783 5.063 5.063 0 0 1 .241 1.487 1.545 1.545 0 0 1-.821 1.331Zm2.508-6.465" transform="translate(-34 -124)" style="fill:#e4f4fa;fill-rule:evenodd"/></svg>