<svg width="200" height="294" fill="none" xmlns="http://www.w3.org/2000/svg"><rect width="200" height="294" rx="35" fill="#EDF3F6"/><rect width="200" height="294" rx="15" fill="#fff"/><mask id="mask0_1_5" style="mask-type:alpha" maskUnits="userSpaceOnUse" x="11" y="5" width="181" height="284"><path fill-rule="evenodd" clip-rule="evenodd" d="M20 5a7 7 0 0 0-7 7v1.774a7 7 0 0 0 7 7h162a7 7 0 0 0 7-7V12a7 7 0 0 0-7-7H20Zm20 27.604c0 4.667-3.358 8.45-7.5 8.45-4.142 0-7.5-3.783-7.5-8.45s3.358-8.45 7.5-8.45c4.142 0 7.5 3.783 7.5 8.45ZM31 44c-11.046 0-20 8.954-20 20v52c0 11.046 8.954 20 20 20h141c11.046 0 20-8.954 20-20V64c0-11.046-8.954-20-20-20H31ZM19 152a7 7 0 0 1 7-7h87.333a7 7 0 0 1 7 7v5.218a7 7 0 0 1-7 7H26a7 7 0 0 1-7-7V152Zm7 25c-8.284 0-15 6.716-15 15v33c0 8.284 6.716 15 15 15h151c8.284 0 15-6.716 15-15v-33c0-8.284-6.716-15-15-15H26Zm-11 76a3 3 0 0 1 3-3h26.848a3 3 0 0 1 3 3v8a3 3 0 0 1-3 3H18a3 3 0 0 1-3-3v-8Zm0 27a7 7 0 0 1 7-7h160a7 7 0 0 1 7 7v2a7 7 0 0 1-7 7H22a7 7 0 0 1-7-7v-2Zm73.076-30a3 3 0 0 0-3 3v8a3 3 0 0 0 3 3h26.848a3 3 0 0 0 3-3v-8a3 3 0 0 0-3-3H88.076Zm-38.038 3a3 3 0 0 1 3-3h26.848a3 3 0 0 1 3 3v8a3 3 0 0 1-3 3H53.038a3 3 0 0 1-3-3v-8Zm73.076-3a3 3 0 0 0-3 3v8a3 3 0 0 0 3 3h26.848a3 3 0 0 0 3-3v-8a3 3 0 0 0-3-3h-26.848Zm32.038 3a3 3 0 0 1 3-3H185a3 3 0 0 1 3 3v8a3 3 0 0 1-3 3h-26.848a3 3 0 0 1-3-3v-8ZM133 145.226a7 7 0 0 0-7 7v5.218a7 7 0 0 0 7 7h10.533a7 7 0 0 0 7-7v-5.218a7 7 0 0 0-7-7H133Zm23 7a7 7 0 0 1 7-7h10.533a7 7 0 0 1 7 7v5.218a7 7 0 0 1-7 7H163a7 7 0 0 1-7-7v-5.218ZM55.5 41.054c4.142 0 7.5-3.783 7.5-8.45s-3.358-8.45-7.5-8.45c-4.142 0-7.5 3.783-7.5 8.45s3.358 8.45 7.5 8.45Zm30.5-8.45c0 4.667-3.358 8.45-7.5 8.45-4.142 0-7.5-3.783-7.5-8.45s3.358-8.45 7.5-8.45c4.142 0 7.5 3.783 7.5 8.45Zm15.5 8.45c4.142 0 7.5-3.783 7.5-8.45s-3.358-8.45-7.5-8.45c-4.142 0-7.5 3.783-7.5 8.45s3.358 8.45 7.5 8.45Zm30.5-8.45c0 4.667-3.358 8.45-7.5 8.45-4.142 0-7.5-3.783-7.5-8.45s3.358-8.45 7.5-8.45c4.142 0 7.5 3.783 7.5 8.45Zm15.5 8.45c4.142 0 7.5-3.783 7.5-8.45s-3.358-8.45-7.5-8.45c-4.142 0-7.5 3.783-7.5 8.45s3.358 8.45 7.5 8.45Zm30.5-8.45c0 4.667-3.358 8.45-7.5 8.45-4.142 0-7.5-3.783-7.5-8.45s3.358-8.45 7.5-8.45c4.142 0 7.5 3.783 7.5 8.45Z" fill="#EDF3F6"/></mask><g mask="url('#mask0_1_5')"><rect width="200" height="294" rx="15" fill="#EDF3F6"/></g></svg>