<svg version="1.1" id="Layer_1" fill="#fff" xmlns="http://www.w3.org/2000/svg" x="0" y="0" viewBox="0 0 121.97 122.88" style="enable-background:new 0 0 121.97 122.88" xml:space="preserve"><path d="M33.78 16.67a1.85 1.85 0 0 1-.68-2.53 1.85 1.85 0 0 1 2.53-.68l4.13 2.38c.89.51 1.19 1.64.68 2.53a1.85 1.85 0 0 1-2.53.68l-4.13-2.38zM71.99 41.8l.88 8.85h16.5l-1.62-8.85H71.99zm20.07 0 1.62 8.85h12.92l-2.44-8.85h-12.1zm15.71 13.11H94.46l1.25 6.85h13.95l-1.89-6.85zm3.07 11.13H96.5l1.25 6.85h14.97l-1.88-6.85zm3.06 11.11H98.53l2.34 12.79h16.55l-3.52-12.79zM96.55 89.94l-2.34-12.79H75.49l1.27 12.79h19.79zm-24.07 0-1.27-12.79H48.07l-1.75 12.79h26.16zm-30.44 0 1.75-12.79H26.11l-2.97 12.79h18.9zm-23.26 0 2.97-12.79H8.07L4.55 89.94h14.23zM9.25 72.89h13.49l1.59-6.85h-13.2l-1.88 6.85zm3.06-11.13h13l1.59-6.85H14.2l-1.89 6.85zm3.06-11.11h12.52l2.06-8.85H17.81l-2.44 8.85zm18.94-8.85-2.06 8.85H47.4l1.21-8.85h-14.3zm18.57 0c0 .08-.01.15-.02.23l-1.18 8.62H68.6l-.88-8.85H52.88zm65.48 52.4H65.48v19.69h16.29v8.99H40.2v-8.99h16.29V94.2H3.61c-.31 0-.64-.05-.97-.14-.65-.18-1.26-.53-1.71-1-.57-.59-.93-1.35-.93-2.21 0-.25.04-.52.12-.8l13.63-49.49c.21-.75.56-1.48 1.11-2.03.61-.61 1.4-.99 2.39-.99h26.52c-1.52-2.51-2.4-5.45-2.4-8.6 0-4.58 1.86-8.73 4.86-11.74 3-3 7.15-4.86 11.74-4.86s8.73 1.86 11.74 4.86c3 3 4.86 7.15 4.86 11.74 0 3.15-.88 6.09-2.4 8.6h32.56c.9 0 1.63.32 2.21.84.06.05.12.1.17.15.55.55.9 1.28 1.11 2.03l13.64 49.5c.08.29.12.55.12.79 0 .86-.36 1.62-.93 2.2-.45.47-1.07.82-1.71 1-.34.1-.67.15-.98.15zM73.28 54.91l.68 6.85H91.4l-1.25-6.85H73.28zm-42.01 0-1.59 6.85h16.2l.93-6.85H31.27zm19.83 0-.93 6.85H69.7l-.68-6.85H51.1zm23.29 11.13.68 6.85h18.37l-1.25-6.85h-17.8zm-45.7 0-1.59 6.85h17.27l.93-6.85H28.69zm20.89 0-.93 6.85H70.8l-.68-6.85H49.58zM43.15 6.23a1.85 1.85 0 0 1 .68-2.53 1.85 1.85 0 0 1 2.53.68l2.38 4.12c.51.89.21 2.02-.67 2.53-.89.51-2.02.21-2.53-.68l-2.39-4.12zm13.33-4.37c0-1.03.83-1.86 1.86-1.86 1.03 0 1.86.83 1.86 1.86v4.76c0 1.03-.83 1.86-1.86 1.86-1.03 0-1.86-.83-1.86-1.86V1.86zm13.75 2.9a1.85 1.85 0 0 1 2.53-.68c.89.51 1.19 1.64.68 2.53l-2.38 4.13a1.85 1.85 0 0 1-2.53.68 1.85 1.85 0 0 1-.68-2.53l2.38-4.13zm10.44 9.37a1.85 1.85 0 0 1 2.53.68c.51.89.21 2.02-.68 2.53l-4.12 2.38c-.89.51-2.02.21-2.53-.67a1.85 1.85 0 0 1 .68-2.53l4.12-2.39zm4.37 13.33c1.03 0 1.86.83 1.86 1.86 0 1.03-.83 1.86-1.86 1.86h-4.76c-1.03 0-1.86-.83-1.86-1.86 0-1.03.83-1.86 1.86-1.86h4.76zm-54.16 2.96c-1.03 0-1.86-.83-1.86-1.86 0-1.03.83-1.86 1.86-1.86h4.76c1.03 0 1.86.83 1.86 1.86 0 1.03-.83 1.86-1.86 1.86h-4.76z"/></svg>