<svg width="800" height="800" viewBox="0 0 24 24" fill="none" xmlns="http://www.w3.org/2000/svg" stroke="#fff"><path d="m12 17-3 3m3-3 3 3m-3-3v-5m0 5v4m0-14L9 4m3 3 3-3m-3 3v5m0-5V3m0 9L7.67 9.5M12 12l4.33 2.5M12 12l-4.33 2.5M12 12l4.33-2.5m0 5 1.098 4.098M16.33 14.5l4.098-1.098M16.33 14.5l3.464 2M7.67 9.5l-4.098 1.098M7.67 9.5 6.572 5.402M7.67 9.5l-3.464-2m12.124 2 4.098 1.098M16.33 9.5l1.098-4.098M16.33 9.5l3.464-2m-12.124 7-1.098 4.098M7.67 14.5l-4.098-1.098M7.67 14.5l-3.464 2" stroke-width="1.5" stroke-linecap="round" stroke-linejoin="round" id="SVGRepo_iconCarrier"/></svg>