<svg id="Layer_2" data-name="Layer 2" xmlns="http://www.w3.org/2000/svg" viewBox="0 0 8.17 8.18"><path d="M4.09 8.18a4.07 4.07 0 0 1-2.89-1.2C.43 6.21 0 5.18 0 4.09S.43 1.97 1.2 1.2C1.97.42 2.99 0 4.08 0c.88 0 1.71.27 2.42.79l.41.3.82-.82v2.05H5.67l1.01-1.01-.65-.4C5.44.55 4.77.36 4.08.36c-.99 0-1.93.39-2.63 1.09C.75 2.16.36 3.09.36 4.09s.39 1.93 1.09 2.64c.7.7 1.64 1.09 2.64 1.09s1.93-.39 2.64-1.09c.63-.63 1.01-1.46 1.08-2.35h.36c-.07.98-.48 1.9-1.18 2.6-.77.77-1.8 1.2-2.89 1.2Z" style="fill:#fff" id="Layer_1-2" data-name="Layer 1"/></svg>