<svg xmlns="http://www.w3.org/2000/svg" viewBox="0 0 12.34 12.34"><g id="Layer_2" data-name="Layer 2"><path d="M5.91 12.34a1 1 0 0 1-1-1v-.47a4.17 4.17 0 0 1-1.18-.49l-.32.34a1 1 0 0 1-.71.3 1 1 0 0 1-.7-.3l-.34-.36a1 1 0 0 1-.29-.7 1 1 0 0 1 .3-.7L2 8.63a4.14 4.14 0 0 1-.52-1.21H1a1 1 0 0 1-1-1v-.51a1 1 0 0 1 1-1h.47A4.06 4.06 0 0 1 2 3.73l-.34-.32A1 1 0 0 1 1.62 2L2 1.64a1 1 0 0 1 1.4 0l.3.36a4.83 4.83 0 0 1 1.19-.49V1a1 1 0 0 1 1-1h.51a1 1 0 0 1 1 1v.46A4.36 4.36 0 0 1 8.6 2l.34-.34a.92.92 0 0 1 .69-.3 1 1 0 0 1 .71.3l.36.34a1 1 0 0 1 .3.7 1 1 0 0 1-.3.7l-.3.33a4.88 4.88 0 0 1 .49 1.2h.45a1 1 0 0 1 1 1v.52a1 1 0 0 1-1 1h-.47a3.84 3.84 0 0 1-.49 1.2l.32.32a1 1 0 0 1 0 1.4l-.36.36a1 1 0 0 1-.7.29 1 1 0 0 1-.7-.29l-.32-.3a5.44 5.44 0 0 1-1.19.49v.45a1 1 0 0 1-1 1Zm.26-8.65a2.48 2.48 0 1 0 2.48 2.48 2.48 2.48 0 0 0-2.48-2.48Z" style="fill:#545454" id="Layer_1-2" data-name="Layer 1"/></g></svg>