<svg xmlns="http://www.w3.org/2000/svg" viewBox="0 0 16.58 16.58"><defs><style>.cls-1{fill:#545454}</style></defs><g id="Layer_2" data-name="Layer 2"><g id="Layer_1-2" data-name="Layer 1"><path class="cls-1" d="m11.48 10.21 3.73-6.47a8.19 8.19 0 0 1 1.37 4.55 8.6 8.6 0 0 1-.23 1.92ZM7.82 0h.47A8.24 8.24 0 0 1 14 2.27l-2.45 4.22ZM.89 4.56a8.34 8.34 0 0 1 5-4.21l2.47 4.21ZM1.36 12.83A8.2 8.2 0 0 1 0 8.29a8.62 8.62 0 0 1 .23-1.93H5.1ZM8.29 16.58a8.18 8.18 0 0 1-5.69-2.27L5 10.09l3.74 6.47ZM8.21 12h7.49a8.33 8.33 0 0 1-5 4.21Z"/></g></g></svg>