<svg id="Layer_2" data-name="Layer 2" xmlns="http://www.w3.org/2000/svg" viewBox="0 0 16.89 16.89"><defs><style>.cls-2{stroke-width:0}.cls-2{fill:#ffaa45}</style></defs><g id="Layer_1-2" data-name="Layer 1"><path class="cls-2" d="M5.91 2.83c-.2 0-.39-.12-.47-.31L4.69.7c-.11-.26.02-.56.27-.66s.56.02.66.27l.75 1.82a.504.504 0 0 1-.46.7ZM11.73 16.89c-.2 0-.39-.12-.47-.31l-.75-1.82a.504.504 0 0 1 .93-.39l.75 1.82a.504.504 0 0 1-.46.7ZM.51 12.24a.504.504 0 0 1-.2-.97l1.82-.75a.504.504 0 0 1 .39.93L.7 12.2c-.06.03-.13.04-.19.04ZM14.56 6.42a.504.504 0 0 1-.2-.97l1.82-.75a.504.504 0 0 1 .39.93l-1.82.75c-.06.03-.13.04-.19.04ZM10.98 2.83c-.06 0-.13-.01-.19-.04a.5.5 0 0 1-.27-.66l.75-1.82a.5.5 0 0 1 .66-.27c.26.11.38.4.27.66l-.75 1.82c-.08.2-.27.31-.47.31ZM5.16 16.89c-.06 0-.13-.01-.19-.04a.5.5 0 0 1-.27-.66l.75-1.82a.5.5 0 0 1 .66-.27c.26.11.38.4.27.66l-.75 1.82c-.08.19-.27.31-.47.31ZM2.33 6.42c-.06 0-.13-.01-.19-.04L.32 5.63a.5.5 0 0 1-.27-.66.5.5 0 0 1 .66-.27l1.82.75c.26.11.38.4.27.66-.08.19-.27.31-.47.31ZM16.38 12.24c-.06 0-.13-.01-.19-.04l-1.82-.75a.5.5 0 0 1-.27-.66.5.5 0 0 1 .66-.27l1.82.75c.26.11.38.4.27.66-.08.2-.27.31-.47.31Z"/><circle class="cls-2" cx="8.44" cy="8.44" r="5.14"/><path d="M8.44 4.32c1.67 0 3.17 1 3.81 2.55.42 1.02.42 2.14 0 3.16s-1.21 1.81-2.23 2.23a4.114 4.114 0 0 1-5.39-2.23 4.13 4.13 0 0 1 2.23-5.39c.5-.21 1.04-.32 1.58-.32" style="stroke-width:0;fill:#ffda69"/></g></svg>