<svg xmlns="http://www.w3.org/2000/svg" viewBox="0 0 96 114.89"><defs><style>.cls-2{fill:#fff}</style></defs><g id="Layer_2" data-name="Layer 2"><g id="Layer_1-2" data-name="Layer 1"><path d="M66 101.26a24 24 0 0 1-33 8.19" style="fill:none;stroke:#fff;stroke-miterlimit:10;stroke-width:4px"/><path class="cls-2" d="M48 4a20 20 0 0 1 19.66 16.34A28 28 0 0 0 44 48v4h4a28 28 0 0 0 27.66-23.66A20 20 0 0 1 72 68H24a20 20 0 0 1 0-40h4v-4A20 20 0 0 1 48 4m0-4a24 24 0 0 0-24 24 24 24 0 0 0 0 48h48a24 24 0 0 0 0-48 24 24 0 0 1-24 24 24 24 0 0 1 24-24A24 24 0 0 0 48 0ZM59.59 82.46a3.25 3.25 0 1 0 1.66.47 3.15 3.15 0 0 0-1.66-.47ZM36.88 83.39a3.24 3.24 0 0 0-1.67 6 3.29 3.29 0 0 0 1.67.46 3.23 3.23 0 0 0 1.67-6 3.18 3.18 0 0 0-1.67-.47Z"/></g></g></svg>